<!DOCTYPE svg PUBLIC "-//W3C//DTD SVG 1.1//EN" "http://www.w3.org/Graphics/SVG/1.1/DTD/svg11.dtd">
<!-- Uploaded to: SVG Repo, www.svgrepo.com, Transformed by: SVG Repo Mixer Tools -->
<svg version="1.1" id="Capa_1" xmlns="http://www.w3.org/2000/svg" xmlns:xlink="http://www.w3.org/1999/xlink" viewBox="0 0 348.27 348.27" xml:space="preserve" width="64px" height="64px" fill="#000000">
<g id="SVGRepo_bgCarrier" stroke-width="0"/>
<g id="SVGRepo_tracerCarrier" stroke-linecap="round" stroke-linejoin="round"/>
<g id="SVGRepo_iconCarrier"> <g id="XMLID_309_"> <g id="XMLID_311_"> <g id="XMLID_312_"> <polygon id="XMLID_333_" style="fill:none;stroke:#FFE477;stroke-width:30;stroke-miterlimit:10;" points="314.135,138.375 251.913,169.486 251.913,34.671 314.135,34.671 "/> </g> <polygon id="XMLID_36_" style="fill:none;stroke:#FFEB99;stroke-width:30;stroke-miterlimit:10;" points="34.135,138.375 96.357,169.486 96.357,34.671 34.135,34.671 "/> </g> <polygon id="XMLID_334_" style="fill:#FFDA44;" points="277.071,0 71.2,0 71.2,177.008 149.323,222.113 149.323,325.042 198.947,325.042 198.947,222.113 277.071,177.008 "/> <polygon id="XMLID_337_" style="fill:#FFCD00;" points="174.135,0 174.135,325.042 198.947,325.042 198.947,222.113 277.071,177.008 277.071,0 "/> <polygon id="XMLID_338_" style="fill:#7B3F00;" points="235.403,304.301 235.403,266.347 112.867,266.347 112.867,304.301 58.715,304.301 58.715,348.27 289.556,348.27 289.556,304.301 "/> <polygon id="XMLID_340_" style="fill:#7B3F00;" points="235.403,304.301 235.403,266.347 174.135,266.347 174.135,348.27 289.556,348.27 289.556,304.301 "/> </g> </g>
</svg>