<!DOCTYPE svg PUBLIC "-//W3C//DTD SVG 1.1//EN" "http://www.w3.org/Graphics/SVG/1.1/DTD/svg11.dtd">
<!-- Uploaded to: SVG Repo, www.svgrepo.com, Transformed by: SVG Repo Mixer Tools -->
<svg height="64px" width="64px" version="1.1" id="Layer_1" xmlns="http://www.w3.org/2000/svg" xmlns:xlink="http://www.w3.org/1999/xlink" viewBox="0 0 512 512" xml:space="preserve" fill="#000000">
<g id="SVGRepo_bgCarrier" stroke-width="0"/>
<g id="SVGRepo_tracerCarrier" stroke-linecap="round" stroke-linejoin="round"/>
<g id="SVGRepo_iconCarrier"> <circle style="fill:#fafafa;" cx="255.995" cy="255.995" r="255.995"/> <path style="fill:#ffffff;" d="M510.423,227.626C511.369,236.927,512,246.385,512,256C512,397.4,397.399,512,256,512 c-9.931,0-19.547-0.63-29.163-1.734L67.941,351.369l348.532-217.694L510.423,227.626z"/> <path style="fill:#57d2ea;" d="M67.941,351.527c31.842-5.359,63.527-10.719,95.054-16.237c2.365-36.256,4.572-72.67,6.936-108.926 s4.572-72.512,6.936-108.769c-26.956,5.359-53.911,10.719-81.34,16.079c-4.572,36.256-9.143,72.512-13.715,108.769 s-9.143,72.67-13.715,108.926L67.941,351.527z"/> <path style="fill:#57d2ea;" d="M255.999,351.527c-31.37-5.359-62.266-10.719-93.005-16.237c2.365-36.256,4.572-72.67,6.936-108.926 s4.572-72.512,6.936-108.769c26.168,5.359,52.651,10.719,79.291,16.079c0,36.256,0,72.512,0,108.769s0,72.67,0,108.926 L255.999,351.527z"/> <path style="fill:#FF9800;" d="M166.306,283.429l2.207-33.892c1.577,0,1.734-0.63,4.099,0c0.315,0.158,0.63,0.158,0.945,0.158 c0,0,0.158,0,0.158,0.158l0.158,0.158c0.315,0.315,0.473,0.63,0.788,0.945c1.577,1.103,3.152,2.365,4.572,3.468 c2.995,0.945,2.995-0.788,6.306,1.734c1.419,1.103,0.788,1.103,1.577,2.365c0.158,0.158,0.315,0.473,0.473,0.63 c0.315,0.63,0.63,1.262,0.945,1.892c1.577,1.577,3.625,0.63,5.832,2.207c1.262,0.945,0.315,0.63,2.995,1.103 c4.256,0.473,2.522,0.158,5.832,2.207c1.262,0.63,1.577,0.315,2.68,0.945c1.577,1.734,1.262,3.625-0.158,5.202 c-4.099,4.729-2.68,3.941-2.995,7.724c-0.158,2.207-0.945,6.621-3.468,7.094c-9.458,2.049-3.941,3.468-6.463,7.094 c-0.788,1.103-1.262,1.262-1.734,2.049c-1.892,3.468-0.63,4.572-6.148,3.784c0.473,0.788,0.158,0.158,0.788,0.945 c1.577,2.049,1.892,3.468-1.419,3.941c-2.837,0.473-1.577,0-1.892,2.365c-1.103,0.315-1.577,0-2.365,0.63 c0.945,1.419,0,0.158,1.734,1.103c-0.315,0.788-0.473,1.577-0.788,2.207c-0.63,1.892-0.788,0.158-1.103,2.207 c0.945,0.315,1.577,0.315,2.522,1.262c-0.158,0.63-0.945,2.68-1.262,3.784c1.419,1.577,2.522,3.31,5.517,3.468 c0,1.419,0.315,1.262-1.103,1.419c-1.262,0.158-3.941-0.63-5.044-1.103c-1.892-0.788-3.784-1.892-5.044-3.468 c-0.788-0.788-0.473-0.473-1.262-1.262c-1.419-1.419-0.788-2.049-1.262-2.995c-0.158-0.63-1.419-1.103-0.945-2.995 c0.158-0.473,1.103-2.995-0.158-2.522c-1.262,0.473,0.945,0.158-0.788,0.945c-0.473-0.945-0.788-2.207-0.945-3.31 c-0.473-1.892-0.945-1.892-1.262-2.995c-0.63-2.522,0.788-2.837-0.788-7.251c-1.103-2.837-0.63-9.616-1.734-13.083V283.429z M255.999,184.591v27.901l0,0c-0.315-0.158-0.473-0.315-0.788-0.473c-1.577-1.103-2.049-2.207-3.784-1.892 c0,1.103,0.158,1.103,0.788,1.892c2.522,2.522,1.734,1.577,3.784,2.522l0,0v3.468l0,0c-0.158,0-0.315,0.158-0.473,0.158 c-0.473-1.103,0.63-0.473-0.788-2.049c-0.788-0.788-1.419-0.945-2.68-1.419c-2.995-1.103-2.522-1.892-4.414-3.31 c-2.049,0-1.577,0.473-2.995,1.103c-1.734,0.63-1.419-0.158-3.468,0c-1.577,2.207,0.788,0.315-2.365,2.207 c-3.625,2.207-0.63,4.414-6.463,5.044c-0.473,0-0.63,0-0.945,0.158c-1.103,0.315-0.473,0-1.103,0.473 c0.473,0.945-0.158,0.788,1.734,0.945c3.625,0.315,4.099-1.262,6.621-1.734c1.262-0.158,9.301-0.473,9.931-0.315 c1.734,1.577,0.315,2.522,0.315,3.784c1.892,0.788,4.572,0.945,5.675,1.734c1.262,0.945,0.63,0.788,1.262,0.945l0,0v16.867v51.074 l-0.158-0.158c-0.315-0.473-0.788-0.945-0.945-1.419c-1.419-3.31-0.788-5.832-3.31-9.143c-2.995-4.414,1.577-6.621,1.419-9.143 c0-0.63-0.315-1.103-0.473-1.577c-0.63-2.68-0.945-5.202-3.31-7.251c-2.522-2.365-2.207-1.419-1.419-5.359 c1.103-4.414-1.419-3.31-4.729-3.31c-1.734-3.941-4.887-2.049-8.197-0.788c-2.049,0.788-2.837-0.158-5.044,0 c-5.044,0.473-1.103,2.207-7.882-1.892c-2.837-1.734-0.945-0.788-2.68-2.995c-0.63-0.788-2.365-1.892-3.152-2.68 c-2.522-2.522,0.473-5.044,0-8.039c-0.788-5.359-1.892-0.63,1.892-7.251c2.049-3.468,5.044-3.468,5.832-5.044 c0.63-1.419,0.158-2.365,1.577-3.625c1.103-1.103,2.68-0.788,3.31-2.365c0.945-2.049-0.788-2.207-2.68-2.365 c-0.788-2.049-0.788-1.577-0.158-3.468c0.315-1.103,0-1.577,0.315-2.68c0.788-2.68,6.621,0,8.354-1.103 c0.788-1.103,0.945-2.207,0-3.31c-0.945-1.103-2.207-0.945-2.837-2.049c1.419-0.788,0.315-0.158,1.577-0.315 c1.419-0.315,1.262-0.63,2.995-0.788c1.577-0.158,2.522-1.262,4.099-2.049c2.207-1.103,1.103-2.049,3.784-2.365 c4.099-0.63,1.419-0.473,1.892-3.468c0.63-0.158,1.262-0.473,1.892-0.63c1.262,1.262-0.315,0.788,1.262,1.734 c0.473-0.158,0.945-0.315,1.419-0.63c-0.158-1.419-1.103-1.103-1.577-2.995c-2.049,0.315-2.837,1.577-4.414,1.103 c-1.577-0.473-1.734-2.207-1.577-3.784c0.63-1.103,3.625-1.734,4.729-2.049c1.892-0.473,1.577-1.419,3.31-2.837 c2.207-1.734,0.63,0,1.734-2.207c2.522,0,1.262-0.158,2.837-0.788l0,0L255.999,184.591L255.999,184.591z M170.876,211.547 l1.103-18.444c0.315-0.473,0.788-1.103,1.419-1.734c0.63,0,3.31,0.158,3.784,0.315c1.892,0.315,0.788,0.63,2.837,1.262 c0,1.262-0.788,2.837,1.577,2.522c1.892-0.315,1.419-1.419,3.625-1.734c0.945,1.892,0.788,2.68,1.262,4.887 c5.359,1.577,2.995,2.995,1.892,5.99c0.63,0.315,1.419,0.473,2.049,0.788c0,0.945,0,1.734-0.158,2.68 c-0.158,0-5.832-0.945-6.148-1.103c0.788-1.892,2.522-1.892,3.468-3.941c-2.049,0.315-1.892,0.788-3.31,1.103 c-1.262,0.315-2.365,0.158-3.784,0.158c-0.473,1.262,0-1.103,0.158,0.473c0,0.63,0.473,0,0,0.63 c-1.892-0.63-1.262-2.207-4.729-0.788c0.788,0.315,1.577,0.473,2.365,0.788c-0.158,1.734-0.315,0.473-0.788,1.577 c-1.262,2.995,3.31,1.103,4.414,0.945c-0.315,1.577-1.577,1.577-3.31,2.049c-2.049,0.473-2.522,1.103-4.099,1.419 c0-1.892-0.315-0.315,0.788-1.577c-1.577,0.158-2.68,0.63-4.256,1.103h-0.158L170.876,211.547L170.876,211.547z M172.453,187.743 l0.473-6.463c0.788-0.315,1.734-0.473,2.68-0.473c11.98,0,6.306,0.473,9.931,1.734c0.788,0.315,2.365,0.473,2.837,0.945 c0.788,0.945,0,1.734,1.262,2.365c1.103,0.63,1.262,0,2.522,1.262c-0.315,0.788-0.945,1.577-2.522,1.577 c-2.049,0-0.788-1.103-2.995-0.945c0,1.577,2.049,2.207,0.158,2.995c-1.577,0.788-0.63-0.315-1.892,0.315c0,0-0.158,0-0.158,0.158 l-0.158,0.158c-0.158,0.158-0.473,0.315-0.63,0.473c-2.995-0.63-2.522-0.315-4.256-1.892c-0.63-0.63-0.788-0.788-2.049-0.63 c-0.788,0-1.734,0.315-2.522-0.158c1.419-1.419,2.207,0,4.256-0.945c0.315-0.158,2.68-1.577,3.152-1.892 c-0.63-1.103,0-0.158-0.945-0.945c-2.049-1.734-2.68-1.262-5.517-1.262c-1.262,1.262-2.365,2.68-3.784,3.31L172.453,187.743z M231.566,196.729c0,3.31,1.419,2.207,2.837,3.784c-0.63,1.419-0.788,0.315-1.419,1.734c-0.63,1.262,0.158,0.158-0.315,2.207 c1.103,0,2.68-0.315,4.099-0.315c2.049-0.158,2.049-0.315,2.68-1.892c-1.103-1.103-2.207-2.207-3.468-3.152 c-1.419-1.734,0-0.473-0.473-2.049c-0.315-0.473-0.63-1.103-0.945-1.577c-1.892,0.473-1.734,0.315-3.152,1.262L231.566,196.729 L231.566,196.729z"/> <path style="fill:#57d2ea;" d="M255.999,351.527c31.212-5.359,62.109-10.719,93.005-16.237c-2.365-36.256-4.572-72.67-6.936-108.926 s-4.572-72.512-6.936-108.769c-26.168,5.359-52.651,10.719-79.291,16.079c0,36.256,0,72.512,0,108.769s0,72.67,0,108.926 L255.999,351.527z"/> <path style="fill:#57d2ea;" d="M444.059,351.527c-32-5.359-63.684-10.719-95.054-16.237c-2.365-36.256-4.572-72.67-6.936-108.926 s-4.572-72.512-6.936-108.769c26.798,5.359,53.911,10.719,81.34,16.079c4.572,36.256,9.143,72.512,13.715,108.769 c4.572,36.257,9.143,72.67,13.872,108.926V351.527z"/> <g> <path style="fill:#43A047;" d="M88.118,191.054l-0.315,3.152c2.837,0.63,5.99,0.315,7.251,0.473 c2.207,0.315,0.945,0.315,3.31-0.158c1.262-0.315,2.995-0.945,3.31-0.945c0.63,0,1.734,0.63,3.625,0.788 c4.099,0.315,3.625,2.049,3.468,4.887c0.473,0.158,0.788,0.158,1.262,0.315c0,0,0.158,0.158,0.315,0.158 c0,0,0.158,0.158,0.315,0.158c0,0,0.158,0,0.315,0.158c-0.473,1.419-0.315,0.63-0.315,2.365c0.158,1.577-0.315,1.577-0.788,2.68 c1.577,2.207,1.892,1.892,0,4.572c-2.522,3.784-4.887,4.256-4.099,9.616c0.315,1.577,0.63,2.68,2.049,3.468 c0.63,0.315,0-0.158,0.63,0.473c0.63,0.473,0.158-0.158,0.473,0.63c0.788,0.63,0-0.315,0.473,0.63 c0.63,1.262,0.158,1.734,0.788,2.837c1.577,3.152,0.788,0.315,0.788,3.468c2.365,0.788,1.577,0.315,2.365,2.207 c0.473,1.103,1.419,1.892,2.68,2.049c-1.419-5.044-6.148-8.197-3.152-9.301c2.207,1.419,0,1.577,1.892,3.625 c2.995,2.995,1.262,1.577,2.522,3.152c0.63,0.788,1.734,1.577,2.68,2.68c1.734,1.892,0.788,2.049,0.788,4.099 c1.892,1.419,4.729,2.522,7.566,3.468c3.31,1.103,1.577,0.788,4.572,0.473c2.049-0.158,2.365,1.103,3.468,1.892 c2.837,1.892,5.044-0.315,7.409,3.784c1.103,1.892-0.945-0.158,2.837,2.68c1.262,0.63,2.522,1.103,3.784,1.734 c0.788-1.103,0-1.262,1.734-1.892c0.788,0.473,1.734,1.892,2.207,2.995c1.577,5.675-6.148,5.675-2.68,10.404 c-0.63,1.262-1.419,0.945-0.945,2.522c0.473,1.734,1.103,1.262,2.049,2.207c2.207,2.207,4.729,8.039,7.566,9.616 c0,0,0.158,0,0.158,0.158c2.049,1.103,4.414,1.734,5.517,2.995c0.315,0.315,0.473,0.788,0.63,1.419l2.207-33.892 c-0.473,0-1.262-0.158-2.207-0.315c-2.207-0.473-2.522-2.207-4.414-0.473c-0.315-0.473-0.63-0.945-0.945-1.419 c-0.315,0.158-0.473,0.315-0.788,0.315c-2.68,1.262-2.995,0.315-4.099,2.207c-0.63,1.103-0.158,0.63-1.262,1.577 c-1.734-0.158-1.419-1.103-3.31-0.788c-1.734,0.158-1.734,1.262-3.784,0.158c-2.522-1.419-0.788-4.256-0.945-6.779 c-3.31-1.419-3.31,0-5.832-0.788c-0.473-0.945,0.473-2.049,0.788-2.68c0.473-1.103,0.945-2.049,0.63-3.468 c-3.468-0.473-3.152,0.473-4.256,2.049c-1.577,2.522-7.724,2.207-8.039-3.152c-0.158-1.892,0.788-3.152,1.262-5.044 c0.315-1.419,1.892-2.049,3.31-2.837c2.837-1.419,3.784,0.315,5.675,0c1.734-0.315,1.103-1.892,5.359-0.945 c3.941,0.788,2.837-0.315,3.625,3.31c0.945,0.315,1.892,0.473,2.837,0.788c-0.315-5.675-2.522-4.099,2.207-7.409 c1.419-0.945,2.049-0.945,3.625-1.734c1.892-0.945,2.365-0.945,1.892-3.468c0,0,0.158-0.158,0.315-0.158 c1.103-0.788,2.365-1.734,3.468-2.522c1.103-0.945,3.152-1.419,4.729-1.734c0.158-1.892,0.473-2.049,2.522-2.68l1.103-18.444 c-2.207,3.468,1.892,5.359-6.463,6.779c-0.63,1.734-0.63,4.256-3.152,2.995c-1.103-1.419,0.473-2.365,0.473-3.625 c-1.103-0.158-1.892-0.315-2.522-0.473c-3.468-0.788-2.365-1.577-5.832-1.734c-0.158-2.049-0.63-0.945-0.63-2.68 c1.419-1.103,3.941-2.207,6.463-3.152c2.365-0.788,4.729-1.577,6.621-2.049c-0.315,0.473-0.63,0.945-0.945,1.419 c2.365,1.103,1.419,1.577,2.522,1.262c1.103-0.315,0-0.473,0-0.473c-0.158-0.315-2.365-0.315,0-0.945 c1.103-0.315,1.734,0.158,2.837,0.315c-0.158-2.365-1.734-0.945-2.522-2.837c1.419,0.473,2.365,0.315,3.31,0l0.473-6.463 c-1.103,0.473-1.892,1.103-2.365,2.049c0.473,0.788,1.419,0.788,1.892,1.262c-0.63,0.945-2.207,1.892-3.784,1.892 c0.945-3.468-1.734,0.788-1.103-4.256c1.419-0.473,3.152-0.473,4.256-1.262c-0.473-0.158-0.945-0.473-1.419-0.63 c-2.207-0.315-3.152,1.419-4.414,2.049c-0.473-0.788,0.158-0.788,0.158-1.734c-1.734-0.158-4.099,0.315-5.202,1.262 c1.262,0.945,0.945,0.788,2.995,1.103c-1.262,1.892,0.788,1.892-1.577,2.995c0,0,0-0.315-0.158-0.158v-0.158 c-0.158-0.315-0.158-0.63-0.315-1.103c-0.63,0-0.945,0-1.262,0.158c-0.788,0.315-1.103,0.788-1.577,1.577 c-1.419,0-3.468,0.315-4.887-0.158c-1.577-0.63-0.63-0.315-1.262-0.788c4.256,0.315,2.365,0,5.517-0.63 c-0.158-0.473-0.315-0.473-0.473-0.63c-0.945-1.577,0.158,0.788-0.63-0.945c0.945-1.262,1.262-1.103,1.892-2.049 c-1.892,0-3.152,0.945-4.729,0.788c-4.414-0.315-7.251-2.995-11.35-1.262c-1.262,0.473-3.468,1.103-3.468,2.365 c1.892,0.315,2.995-0.158,4.887-0.473c-0.315,0.945-0.788,1.892-1.103,2.837c-2.207,0-1.262-0.158-3.152-0.473 c-1.892-0.473-2.049,0-3.784-0.158c-2.522-0.158-0.63-0.473-2.68-0.63c-2.68-0.158-6.936,1.262-9.616,1.103 c-4.414-0.63-8.67-1.262-13.083-1.892c-2.837-0.473-14.502,1.892-15.133,2.365c-1.103,0.63,0.158,0.63-0.158,2.365 c-1.892,0-6.463-0.788-6.779,1.419c1.577,0.473,2.68,0,3.784,0.63c-1.103,0.788-2.68,0.945-4.256,1.103L88.118,191.054z"/> <path style="fill:#43A047;" d="M342.857,237.084l-0.63-10.561l-2.837-46.03c-2.68-1.262-0.473-2.049-6.463-2.207 c-2.837,0-3.784-1.103-7.566-0.158c-2.68,0.788-1.577,0.158-3.941,0.315c-2.207,0.63-4.414,1.262-6.621,1.892 c-0.945,0.63-0.945,0.315-2.049,0.473c-2.837,0.63-0.315,0.158-1.734,0.788c-2.522,1.103-2.837,0.315-3.941,0.63 c-0.473,0.158-0.63,0.473-1.419,0.788c-1.103-1.419-1.262-1.734-3.784-1.419c-2.049,2.522-0.473,2.207,1.103,3.784 c-2.207-0.158-4.099-1.262-6.463-0.945c-1.419,0.158-0.788,0.158-1.419,1.103c-1.734-0.473-1.577,0-3.31,0 c-2.049,0.158-1.892-0.315-3.31-0.158c-2.365,0.158-3.941,1.577-5.517,1.734c-1.103-1.419,0.788-1.262-1.577-1.577 c-0.788,0.945-0.473,0.63,0,1.892c-2.365,0.158-3.152,0-3.784,1.734c-0.63-0.158-1.419-0.158-2.049-0.315 c-0.63,0.473,0,0.158-0.473,1.103c-2.049-0.473-2.207-0.473-2.68-2.207c2.522-0.158,4.099,0.945,5.832-0.473 c-0.473-2.365-7.566-2.365-9.931-2.995c-2.995-0.945-4.729-1.419-8.828-0.473c-1.103,0.315-2.207,0.315-3.152,0.63h-0.158v27.902 c1.103,0.473,2.365,0.945,3.152,1.419c0.945,2.049-0.315,1.103,1.577,3.31c1.103,1.103,0.788,2.049,2.049,2.68 c2.049-0.158,0.315,0.315,1.577-0.788c0.158-0.158,0.788-0.788,1.103-0.945c-0.63-0.788-1.103-0.788-1.734-1.734 c2.365-2.365,3.31-1.103,3.941,0.63c1.419,4.414,3.784,3.152,5.675,2.995c1.892-0.158,0.315,0,2.049,0.473 c1.577,0.315,0.788,0,2.049-0.158c3.941-0.788,0.945,5.202,0.473,5.832c-2.207,0.158-1.734-0.158-3.31-0.315 c-3.152-0.315,0.158,1.419-7.251-0.473c-7.094-1.734-5.517-2.207-7.094,1.734c-1.577-0.158-1.577-0.315-2.995-0.788 c-0.63-0.158-0.945-0.315-1.103-0.315v16.867v51.074c0.788,1.103,1.734,2.207,2.049,3.468c0.473,1.577-0.788,1.892,0.945,2.995 c0.63,0.315,7.566,0.315,10.876-2.049c0.63-0.473,1.103-0.63,1.734-1.419c0.788-0.788,0.788-1.103,1.419-2.049 c0.945-1.103,1.103-0.315,1.734-1.734c0.63-1.103,0.315-1.892,0.788-2.68c0.945-0.63,2.049-0.63,2.837-1.577 c1.103-3.784-1.734-3.468,0.945-5.832c2.522-2.207,4.729-2.522,5.359-3.31c2.995-2.995-1.892-10.404-0.315-13.083 c1.419-2.365,2.207-2.522,3.625-4.572c2.837-3.625,6.463-3.468,8.67-8.197c0.63-1.419,3.152-3.941,2.049-5.517 c-0.945-0.63-6.621,1.419-8.67,0.945c-1.262-2.365-0.473-2.837-3.468-4.572c-3.941-2.365-1.262-1.892-3.784-4.256 c-1.262-1.103-0.788-0.945-1.103-2.68c-0.315-1.262-1.103-1.577-1.734-2.522c-0.63-0.788-2.837-4.414-2.365-5.517 c2.049-0.158,2.995,1.892,3.941,3.152c0.63,0.788,1.262,1.103,1.577,1.892c0.63,0.945,0.158,1.577,1.103,2.68 c1.892,2.365,1.892,0.63,3.784,5.359c0.63,1.419,1.262,2.68,1.892,4.099c2.995-0.158,5.832-1.892,8.513-2.68 s0.945-0.63,2.522-1.577c0.945-0.63,1.577-0.315,2.68-0.945c1.419-0.788,5.832-4.729,5.359-6.148 c-1.103-1.103-0.788-0.63-2.522-1.419c-2.207-0.788-0.788-1.103-2.207-2.207c-1.577,0.945-2.207,1.892-5.044,1.734 c0-0.158-0.158-0.945-0.315-0.945c-0.473-0.945-1.419-1.419-2.207-2.049c-1.103-0.945-2.365-1.262-2.207-3.152 c2.837-1.262,2.522,0.945,4.572,2.207c2.995,2.049,2.837,1.103,5.832,0.945c1.734,1.892,2.049,1.734,5.044,1.892 c1.577,0.158,5.517-0.315,6.621,0c1.262,0.945,2.68,1.892,3.941,2.837c0.63,0.945,0.158,1.262,1.262,1.892 c1.577,0.788,1.419,0,3.152-0.158c0.315,0.788,0.63,2.995,0.945,4.099c0.63,2.207,1.577,3.468,2.365,5.359 c0.473,1.103,2.522,5.044,2.995,5.202c1.577,0.158,2.837-2.207,3.152-3.152c0.63-2.522,0.158-2.995,0.473-5.044 c2.522-1.262,3.941-3.152,6.306-4.729c1.892-1.262,0.788-0.788,1.892-1.892L342.857,237.084z M255.999,214.384v3.468 c1.577-0.63-0.788-0.788,1.734-2.522C256.946,214.857,256.473,214.541,255.999,214.384z M296.197,275.389 c-1.577,0.63-1.892,2.207-3.152,2.995c-1.419,0.945-3.152,0.473-3.625,2.365c-0.63,2.207,1.103,1.577-0.788,4.414 c-0.788,1.103-0.788,3.784,0.315,4.572c3.31,2.522,5.044-3.784,5.832-5.675c0.63-1.419,1.103-2.995,1.734-4.256 c0.63-1.419,1.419-2.522-0.158-4.414h-0.157V275.389z M290.837,210.128c0.315,2.837,2.522,3.941,3.941,5.202 c-0.158,1.419-0.63,0.945-0.63,2.837c1.892,1.103,3.152,1.734,5.675,1.103c0.315-2.365-0.63-2.207-1.577-3.784 c0.158-0.158,0.63-0.473,0.63-0.473c0.63-0.63,0.315,0.315,0.63-0.945c-1.734-0.473-4.572-1.892-4.887-3.625 c0.788-0.473,0.63-0.158,1.262-0.473c1.419-0.63,0.315,0.315,1.103-0.788c-0.788-1.103-1.577-1.262-3.31-0.788 c-0.788,0.158-2.68,1.262-3.152,1.577L290.837,210.128z M275.389,210.916c-1.103-1.262-1.103-1.892-3.31-1.892 c-0.945,0.788-1.892,1.892-2.522,2.995c-0.788,1.734-0.158,0.473-0.158,2.365v0.158c0,1.103-0.315-0.158-0.158,0.788 c1.734-0.315,0.473-0.315,1.734-0.63c1.262-0.315,5.044-1.262,6.148-0.945c2.522,0.473,4.729,2.049,7.724,0.473 c-0.158-2.049-3.31-2.837-5.517-3.625c0.158-1.892,0.788-0.473,0.63-2.207c-0.788,0-1.262-0.158-1.892,0.158 c-1.734,0.63-0.788,0.788-0.788,0.945c0,0.945,1.734-0.158,0,1.103C276.808,210.916,276.02,210.916,275.389,210.916z"/> </g> <path style="fill:#FF9800;" d="M351.527,180.966c5.517,0,3.625,1.577,6.463,2.207c2.207,0.63,0.788-0.315,3.31-0.473 c0.788,0,1.577,0.158,2.365,0c2.207-0.158,1.103-0.315,1.892-0.63c1.577-0.63,7.566-0.473,8.986-0.158 c1.419,0.473,1.262,0.63,3.468,1.103c2.837,0.473,6.148-0.473,8.67,0.63c1.577,0.63,0.945,0.945,3.468,0.945 c2.049,0,4.099-0.473,5.99,0c2.207,0.473,0.788,0,3.468-0.473c0.788-0.158,1.419,0,2.207,0.158c1.892,0.473,1.419,0.788,3.941,0.788 c4.414-0.158,7.094,1.419,11.193,1.892c2.68,0.315,5.517-0.158,5.359,2.522c-2.837,0.315-5.202-1.734-7.882-0.473 c0.158,2.049,1.577,0.788,2.995,2.365c-0.158,0-0.315,0-0.315,0c-2.049,0.473-2.995,0.945-4.572,2.522 c-2.049,0-3.625-0.315-5.832,0.473c-0.315,2.68,4.099,2.049,3.468,5.99c0,0.788,0,2.049-0.158,2.995 c-1.892-0.158-6.306-3.941-7.251-5.044c-1.577-2.049,2.995-6.621,0.315-6.463c-0.945,0-0.315,0.473-1.419,1.262 c-2.68-0.158-1.419-1.734-4.729-0.788c-0.788,2.365,1.103,2.049-0.315,2.68c-1.419,0.63-2.522-0.315-3.625-0.473 c-0.158,0-7.409,0.315-7.724,0.315c-0.788,0.788-2.207,3.625-2.522,4.414c2.365,1.103,3.941,0.788,4.729,0.788 c1.103,0,1.577,0.63,2.365,0.788c2.68,0.473,0-0.63,2.207,0c1.577,1.419,3.31,2.837,4.887,4.099 c-0.315,0.473-0.63,1.103-0.788,1.577c-1.734-1.103-2.049-3.152-4.099-3.784c-0.315,2.207,2.522,1.262,0.945,6.463 c-1.419,4.572-2.365,2.837-4.887,3.31c-0.63,0.315-2.049,3.31-2.207,3.941c1.734,1.262,4.099,2.049,3.941,4.729 c-1.103,0.473-1.734,0.788-3.152,0.473c-1.577-4.729-0.945-2.365-2.837-3.784c-1.892-1.419,0.473-2.837-4.729-1.262 c-0.788-0.945-0.315-0.788-0.788-1.892c-1.262,0.158-3.152,1.419-3.468,2.522c1.103,0.473,2.049,1.103,2.522,1.103 c1.103,0.158,1.577-0.473,3.152,0.158c-0.788,1.262-1.419,1.103-2.049,2.365c1.262,1.577,3.31,2.68,3.941,4.729 c0,0,0,0.158,0.158,0.315c0.473,1.103,0.788,0.315,0.788,1.734c0,1.103-0.63,1.734-1.103,2.837 c-2.522,5.044-5.99,4.414-10.876,6.306c0,1.419,1.577,3.625-1.892,3.152c-0.315-2.207,1.262-1.103,0.945-3.31 c-2.365-0.63-3.625,0.158-4.572,2.207c0.945,3.31,5.99,3.625,4.729,8.828c-1.577,1.103-3.152,2.049-4.729,3.152 c-1.419-0.788,0.158-0.158-1.262-1.577c-1.419-1.419-3.152-2.365-4.729-3.468c-0.158,0.158-0.158,0.315-0.315,0.63 c-0.473,1.103-1.262,2.365-0.788,3.468c0.158,0.63,1.419,2.68,2.049,2.995c1.103,0.788,2.365,1.103,2.68,2.365 c0.158,0.473,0.788,3.941,0.788,4.099c-4.729-1.419-3.31-3.784-5.044-6.148c-0.788-1.103-0.945-0.788-1.892-1.892 c0-1.892,0.63-3.468,0-5.517c-0.315-1.103-1.103-2.837-1.419-4.099c-1.734,0.315-3.152,2.207-3.625,0.315 c0-0.315-0.158-0.63-0.158-0.945c-0.945-3.31-2.365-2.522-3.784-5.675c-2.365,0.63-2.365,0.63-5.044,0.945l-0.158,0.158 l-0.63-10.561l-2.837-46.03h0.158c0,0,7.409,0.788,7.882,0.788c1.577,0,1.577-0.473,3.784-0.473c0.158,0,0.158,0,0.315,0 L351.527,180.966z M391.251,223.527c0.158,1.103,0.945,1.892,2.207,2.365c1.262-1.577-0.315-1.734,4.414-2.837 c0.315,0,0.63-0.158,0.945-0.315c3.941-1.734,1.262-0.473,4.256-1.419c0-1.419-0.473-2.365-0.63-3.941 c0-1.734-0.788-2.365-2.837-2.68c-0.158,3.31,2.68,2.207-1.892,5.517c-2.365,1.734-3.941-0.315-6.306,3.152L391.251,223.527z M365.083,267.822c0.315-0.945,0.473-2.207,0.945-2.995c1.734,0,0.158,1.103,2.837,0.945c0.473-0.788,0.473-1.262,0.315-2.049 c-1.262-0.158-1.577,0-2.365,0.63c-0.315-0.158-0.473-0.473-0.788-0.63c-1.262-0.63-1.103,0.945-2.207-0.945 c-1.262-1.892,0.158-1.892-2.522-3.152c-1.577-0.788-2.207-1.262-3.625-2.365c-2.365-1.892-0.315-1.103-4.099-2.049 c0,2.049,0.473,0.788,2.522,3.31c0.788,1.103,1.734,2.365,2.522,3.468C359.881,263.567,361.143,267.98,365.083,267.822z M371.074,264.827c3.31,0.473,5.675,1.419,6.621,0.788c0.945-0.945,0.63-1.577,1.734-2.837c1.419-1.734,0.473-1.262,2.207-2.68 c-0.945-2.837-1.419-1.577,0.473-4.414c-0.315-0.945-1.103-1.892-2.049-2.522c-1.103,0.473-0.158,0-0.945,0.63 c-1.262,1.103-2.68,2.365-3.941,3.468c-1.103,0.945-0.63,0.158-2.365,1.262c-0.473,0.158-0.945,0.473-1.577,0.63 c-0.788,0.158-1.419-0.473-1.577,1.419c-0.158,0.945,1.103,2.837,1.419,4.099V264.827z M403.231,270.818 c1.734,0.473,1.103-0.158,2.365,0c2.837,0.473,1.892,2.837,5.517-0.63c4.887,0,0,2.68,6.936,3.31c0-1.262-2.207-2.995-3.152-3.625 c0.473-0.945,0.473-0.473,0.788-1.577c-0.473-0.158-1.103-0.473-1.577-0.788c-2.837-2.522,0.945-0.63-5.044-2.837 c-0.788-0.315-3.468-1.262-3.941-1.262c-2.365-0.315-2.207,1.262-4.099,1.577c-1.262-1.262-0.473-3.31-2.68-3.152 c-2.837,0.158,0,3.625,0,3.625c1.103,0.945,1.419-0.158,4.572,1.734c3.152,1.892,0.63,2.207,0.158,3.625H403.231z M399.132,278.227 c0.315-0.473,0.315-0.473,0.473-0.63c0.63-0.63,0.158,0,0.788-0.788c0.63-0.788,0.63-0.945,0.63-1.892 c-1.892,0-2.68,0.473-4.099-0.788c-1.103,0.315-0.315,0.315-1.577,0.788c-1.103,0.473-0.788,0-1.892,0.63 c-1.262,0.788-0.945,1.577-2.522,2.365c-1.419-0.473-1.892-1.734-4.099-0.315c-1.419,0.945-0.473,0.473-1.419,1.419 c-1.262,1.103-1.103,0.473-2.207,1.103c-2.837,1.419,1.577,2.207-8.197,4.414c-0.788,0.158-3.625,1.577-4.099,2.049 c-1.103,1.103-1.103,2.837-1.577,3.941c-0.788,2.049,0,1.892-0.315,5.044c-0.315,3.941-1.103,2.365-1.892,4.414 c1.734,2.049,3.31,0.158,5.517-0.315c1.262-0.315,2.522,0,3.784-0.158c0.945-0.158,1.577-0.788,2.68-1.262 c0.315-0.158,6.463-1.262,6.779-1.262c3.152,0,3.468,1.262,3.941,3.468c1.577-0.158,0.788-0.158,2.207-0.945 c0.945,1.262,0.788,2.68,0.788,4.572c1.419,0.788,4.099,0.945,5.675,1.103c1.577,0,0.945-0.473,2.68-0.788 c4.414-1.103,0.63,0.63,7.094-4.729c1.734-1.419,2.68-1.734,4.099-3.625c1.419-1.734,3.941-4.887,2.522-7.251 c-0.788-1.419-1.577-2.995-2.207-4.572c-1.419-2.207-1.734,0.945-2.049-5.202c-0.158-2.207,0.473-0.945-1.262-2.049 c0-1.734,0-2.207-0.473-3.31c-1.419,0.473-0.473-0.315-1.419,1.103c-1.734,2.522-1.577,8.354-5.517,5.517 c-0.945-0.788-2.207-1.419-2.68-2.207L399.132,278.227z"/> </g>
</svg>