<?xml version="1.0" standalone="no"?>
<!DOCTYPE svg PUBLIC "-//W3C//DTD SVG 20010904//EN"
 "http://www.w3.org/TR/2001/REC-SVG-20010904/DTD/svg10.dtd">
<svg version="1.0" xmlns="http://www.w3.org/2000/svg"
 width="500.000000pt" height="500.000000pt" viewBox="0 0 500.000000 500.000000"
 preserveAspectRatio="xMidYMid meet">

<g transform="translate(0.000000,500.000000) scale(0.100000,-0.100000)"
fill="#000000" stroke="none">
<path d="M1146 2741 c-16 -17 -15 -18 9 -16 22 3 24 0 20 -22 -2 -14 -1 -23 2
-19 4 3 15 -2 25 -11 18 -16 18 -16 12 2 -5 11 -4 16 3 12 5 -3 10 1 10 9 0
10 -4 11 -11 4 -13 -13 -29 -13 -21 0 3 5 -3 18 -14 29 -11 11 -17 22 -13 25
3 3 3 6 0 6 -3 0 -13 -8 -22 -19z"/>
<path d="M1036 2734 c-9 -8 -16 -20 -16 -25 0 -6 -10 -8 -22 -4 -20 5 -21 4
-7 -7 16 -11 16 -13 0 -27 -9 -9 -12 -13 -5 -8 6 4 19 4 28 1 14 -5 14 -9 4
-23 -12 -14 -11 -15 6 -1 16 13 16 16 3 24 -12 7 -13 15 -5 32 13 27 30 35 48
24 11 -7 11 -11 0 -27 -13 -17 -13 -17 5 -1 19 17 19 18 -2 38 -20 18 -23 18
-37 4z"/>
<path d="M1234 2738 c-4 -7 -4 -10 1 -6 4 4 15 2 24 -5 14 -11 14 -10 2 6 -16
20 -18 21 -27 5z"/>
<path d="M970 2730 c-9 -6 -10 -10 -3 -10 6 0 15 5 18 10 8 12 4 12 -15 0z"/>
<path d="M1080 2650 c0 -5 5 -10 10 -10 6 0 10 5 10 10 0 6 -4 10 -10 10 -5 0
-10 -4 -10 -10z"/>
<path d="M1229 2643 c-13 -16 -12 -17 4 -4 9 7 17 15 17 17 0 8 -8 3 -21 -13z"/>
<path d="M1148 2633 c7 -3 16 -2 19 1 4 3 -2 6 -13 5 -11 0 -14 -3 -6 -6z"/>
<path d="M1057 2575 c-4 -8 -3 -16 1 -19 4 -3 9 4 9 15 2 23 -3 25 -10 4z"/>
<path d="M1110 2568 c12 -10 27 -18 34 -18 6 1 0 7 -13 14 -17 10 -20 15 -10
19 8 3 3 4 -9 4 l-24 -1 22 -18z"/>
<path d="M930 2476 c0 -2 8 -10 18 -17 15 -13 16 -12 3 4 -13 16 -21 21 -21
13z"/>
<path d="M1237 2423 c7 -2 11 -10 9 -16 -1 -7 -1 -9 1 -4 3 4 9 7 14 7 6 0 7
-6 3 -12 -5 -9 -2 -9 9 1 26 20 21 30 -15 29 -18 -1 -28 -3 -21 -5z"/>
<path d="M1080 2395 c0 -8 4 -15 10 -15 5 0 7 7 4 15 -4 8 -8 15 -10 15 -2 0
-4 -7 -4 -15z"/>
<path d="M1191 2402 c-1 -7 -5 -10 -11 -7 -6 3 -7 -1 -4 -10 4 -11 10 -13 16
-7 6 6 8 16 5 24 -4 10 -6 10 -6 0z"/>
<path d="M1049 2398 c-8 -26 -5 -36 9 -31 10 4 13 2 8 -5 -4 -7 3 -16 18 -23
30 -14 26 -27 -6 -25 -13 1 -22 7 -20 15 1 7 -2 10 -8 6 -15 -9 10 -43 29 -40
9 2 18 4 21 5 3 1 8 2 13 1 18 -3 4 31 -18 41 -13 6 -22 15 -19 20 3 4 -2 11
-11 14 -13 6 -14 8 -3 15 10 7 10 9 1 9 -7 0 -13 -1 -14 -2z"/>
<path d="M1125 2381 c-9 -15 15 -25 28 -12 9 9 7 10 -7 5 -13 -5 -17 -4 -12 4
4 7 5 12 2 12 -3 0 -7 -4 -11 -9z"/>
<path d="M1209 2377 c-1 -1 -2 -14 -3 -29 -2 -19 1 -25 11 -21 8 3 11 9 6 12
-12 9 -15 31 -4 31 5 0 11 -5 13 -12 3 -8 6 -7 10 3 4 10 -1 15 -13 16 -10 1
-19 1 -20 0z"/>
<path d="M1140 2285 c0 -14 -13 -20 -34 -16 -5 1 -4 -4 2 -12 7 -8 8 -17 4
-21 -4 -4 0 -6 8 -4 10 2 14 -4 13 -17 -1 -17 1 -17 17 5 10 14 17 27 14 29
-2 2 4 10 14 18 15 13 15 13 -6 3 -12 -6 -20 -15 -17 -20 10 -16 -12 -20 -25
-5 -8 10 -9 15 -2 15 6 0 16 9 22 20 7 14 7 20 0 20 -5 0 -10 -7 -10 -15z"/>
<path d="M1080 2233 c0 -6 8 -17 18 -24 16 -13 16 -13 2 6 -8 11 -16 22 -17
24 -2 2 -3 0 -3 -6z"/>
</g>
</svg>
